<svg xmlns="http://www.w3.org/2000/svg" viewBox="0 0 512 512"><path d="m512 256c0 141.386719-114.613281 256-256 256s-256-114.613281-256-256 114.613281-256 256-256 256 114.613281 256 256zm0 0" fill="#00edff"></path><path d="m512 256c0-14.261719-1.183594-28.242188-3.429688-41.871094l-85.957031-85.957031-333.226562 220.886719 162.894531 162.894531c1.238281.019531 2.476562.046875 3.71875.046875 141.386719 0 256-114.613281 256-256zm0 0" fill="#0ac0ea"></path><path d="m94.386719 133.171875h323.226562v210.886719h-323.226562zm0 0" fill="#fff"></path><path d="m255.605469 133.171875h162.007812v210.886719h-162.007812zm0 0" fill="#dce1eb"></path><path d="m422.613281 349.058594h-333.226562v-220.886719h333.226562zm-323.226562-10h313.226562v-200.886719h-313.226562zm0 0" fill="#2d2d2d"></path><path d="m422.613281 128.171875h-167.007812v10h157.007812v200.886719h-157.007812v10h167.007812zm0 0" fill="#232222"></path><path d="m296.5 344.058594h-81c-12.695312 14.773437-31.207031 23.269531-50.683594 23.269531h-12.039062v23h206.445312v-23h-12.039062c-19.476563 0-37.988282-8.496094-50.683594-23.269531zm0 0" fill="#2d2d2d"></path><path d="m359.222656 367.328125h-12.039062c-19.476563 0-37.988282-8.5-50.683594-23.269531h-40.894531v46.269531h103.617187zm0 0" fill="#232222"></path><path d="m225.085938 317h-43.003907l-31.5-71h43.003907zm0 0" fill="#7e8596"></path><path d="m252.722656 297.449219-122.667968-40v-58.667969l122.667968-40zm0 0" fill="#636978"></path><path d="m130.054688 229.152344v28.296875l122.667968 40v-68.296875zm0 0" fill="#555a66"></path><path d="m244.5 154.113281h32v148h-32zm0 0" fill="#ff4545"></path><path d="m244.5 229.152344h32v72.960937h-32zm0 0" fill="#db0404"></path><path d="m124.054688 187.613281h32v81h-32zm0 0" fill="#ff4545"></path><path d="m124.054688 229.152344h32v39.460937h-32zm0 0" fill="#db0404"></path><path d="m314.746094 217.074219h51.253906v22.078125h-51.253906zm0 0" fill="#9543ff"></path><path d="m314.746094 229.152344h51.253906v10h-51.253906zm0 0" fill="#7c00ff"></path><path d="m310.765625 250.636719 36.242187 36.242187-15.613281 15.613282-36.242187-36.242188zm0 0" fill="#7c00ff"></path><path d="m347.011719 169.34375-36.242188 36.242188-15.613281-15.609376 36.242188-36.242187zm0 0" fill="#9543ff"></path></svg>