<svg xmlns="http://www.w3.org/2000/svg" height="512" viewBox="0 0 512 512" width="512"><g id="BULINE"><path d="m512 256a256 256 0 0 1 -256 256h-.93q-10.9 0-21.59-1h-.07a255.73 255.73 0 0 1 -233.41-255c0-141.38 114.62-256 256-256s256 114.62 256 256z" fill="#8dcbfc"></path></g><g id="Icons"><path d="m436.51 328.19v.74a183.65 183.65 0 0 1 -181.2 183.07h-.24-2.38a187.44 187.44 0 0 1 -19.21-1h-.07a183.94 183.94 0 0 1 -146.16-102.57 182.9 182.9 0 0 1 -18.38-79.5c0-.25 0-.49 0-.74a183 183 0 0 1 19.78-83 180.65 180.65 0 0 1 10.29-17.79 185 185 0 0 1 18.55-23.77q3.65-3.93 7.49-7.66 4.09-4 8.44-7.66t9.09-7.27q6.68-5 13.82-9.42a182.54 182.54 0 0 1 64.51-24.5l1.6-.27q4.65-.78 9.36-1.3c.8-.1 1.61-.18 2.41-.26 3.43-.35 6.89-.59 10.38-.74.83 0 1.65-.07 2.48-.09 1.87-.06 3.74-.09 5.62-.09s4 0 6 .1l1.93.07a183.61 183.61 0 0 1 175.89 183.65z" fill="#81bad5"></path><path d="m501.46 328.93a255.86 255.86 0 0 1 -39.77 79.5h-411.38a255.86 255.86 0 0 1 -39.77-79.5z" fill="#72af7e"></path><path d="m459.42 151.3a16 16 0 0 0 -21.81-14.91 28.41 28.41 0 0 0 -53.11-11.32 21.26 21.26 0 1 0 -4.8 42.18v.06h64.22a16 16 0 0 0 15.5-16.01z" fill="#fff"></path><path d="m86.64 219a13.26 13.26 0 0 0 -4.77.9 23.37 23.37 0 0 0 -43.69-9.31 18.1 18.1 0 0 0 -3-.27 17.5 17.5 0 0 0 -1 35v.05h52.89a13.17 13.17 0 0 0 -.43-26.37z" fill="#fff"></path><path d="m368.58 256.08a21.32 21.32 0 0 0 -3.6.33 28.4 28.4 0 0 0 -53.1 11.31 16 16 0 1 0 -6.32 30.9h64.23v-.06a21.27 21.27 0 0 0 -1.21-42.51z" fill="#fff"></path><path d="m480.26 379.54a256.27 256.27 0 0 1 -224.26 132.46h-.93-2.38a187.44 187.44 0 0 1 -19.21-1h-.07a256.35 256.35 0 0 1 -201.67-131.46z" fill="#4b506d"></path><rect fill="#fcfdff" height="21.44" rx="10.72" width="132.58" x="95.48" y="404.93"></rect><rect fill="#fcfdff" height="21.44" rx="10.72" width="132.58" x="272.89" y="404.93"></rect><path d="m164.75 75-30.22 16.28a3.61 3.61 0 0 0 -.18 6.24l54 33.16 65.17-28.68-86-27.23a3.58 3.58 0 0 0 -2.77.23z" fill="#d9dadb"></path><path d="m80.59 154.44-27.59 10.91c-2.23.88-2 3.75.36 5.15l54.55 32 60.09-18.24-84.72-29.8a3.83 3.83 0 0 0 -2.69-.02z" fill="#d9dadb"></path><path d="m260.57 175.39c-2.63 1-5.28 2-8 2.92-78.53 28.13-147.81 35.31-154.71 16s51.17-57.71 129.71-85.84q4.85-1.74 9.57-3.39c33.32-11.67 62.5-20.26 87.56-23.29a12.36 12.36 0 0 1 7.2 1.29c5.24 2.57 9 8 13.38 9.21a6.34 6.34 0 0 0 3.3.09c22.45-5.24 21.41-2 26.06 3.52 12.75 15.18-39.71 51.66-114.07 79.49z" fill="#d9dadb"></path><path d="m260.57 175.39c-75.07 25.7-139.78 31.73-146.44 13.14s47.92-55.53 123-83.41c33.32-11.67 62.5-20.26 87.56-23.29a12.36 12.36 0 0 1 7.2 1.29c5.24 2.57 9 8 13.38 9.21a6.34 6.34 0 0 0 3.3.09c22.45-5.24 21.41-2 26.06 3.52 12.76 15.14-39.7 51.62-114.06 79.45z" fill="#fcfdff"></path><path d="m260.23 165-38.14 81.7a2.82 2.82 0 0 1 -.23.42 3.58 3.58 0 0 1 -1.85 1.46l-32.42 11.24a3.6 3.6 0 0 1 -4.71-4.09l12.12-62.19 10.32-4.54z" fill="#d9dadb"></path><path d="m260.23 165-38.14 81.7a2.82 2.82 0 0 1 -.23.42l-23.71 8.09a3.71 3.71 0 0 1 -4.86-4.19l12-62z" fill="#fcfdff"></path><rect fill="#d9dadb" height="21.27" rx="7.38" transform="matrix(.94 -.34 .34 .94 -46.55 63.73)" width="14.77" x="152.78" y="155.24"></rect><rect fill="#d9dadb" height="21.27" rx="7.38" transform="matrix(.941 -.337 .337 .941 -41.77 72.17)" width="14.77" x="179.48" y="145.67"></rect><rect fill="#d9dadb" height="21.27" rx="7.38" transform="matrix(.941 -.337 .337 .941 -36.64 81.21)" width="14.77" x="208.05" y="135.44"></rect><rect fill="#d9dadb" height="21.27" rx="7.38" transform="matrix(.941 -.337 .337 .941 -31.98 89.42)" width="14.77" x="234.02" y="126.14"></rect><rect fill="#d9dadb" height="21.27" rx="7.38" transform="matrix(.941 -.337 .337 .941 -27.34 97.6)" width="14.77" x="259.88" y="116.87"></rect><g fill="#272b3c"><rect height="21.27" rx="7.38" transform="matrix(.941 -.337 .337 .941 -46.03 64.65)" width="14.77" x="155.7" y="154.19"></rect><rect height="21.27" rx="7.38" transform="matrix(.941 -.337 .337 .941 -41.34 72.92)" width="14.77" x="181.84" y="144.83"></rect><rect height="21.27" rx="7.38" transform="matrix(.941 -.337 .337 .941 -36.25 81.89)" width="14.77" x="210.22" y="134.66"></rect><rect height="21.27" rx="7.38" transform="matrix(.94 -.34 .34 .94 -31.56 90.16)" width="14.77" x="236.36" y="125.3"></rect><rect height="21.27" rx="7.38" transform="matrix(.94 -.34 .34 .94 -26.87 98.42)" width="14.77" x="262.49" y="115.94"></rect><path d="m345.31 92.33-19.81 7.1a6.59 6.59 0 0 1 -4.44-12.43l10.87-3.89c5.24 2.58 8.96 7.98 13.38 9.22z"></path></g></g></svg>