<svg xmlns="http://www.w3.org/2000/svg" height="512" viewBox="0 0 128 128" width="512"><g id="Circle_Grid" data-name="Circle Grid"><circle cx="64" cy="64" fill="#69b0ee" r="64"></circle></g><g id="icon"><rect fill="#575b6d" height="19.168" rx="1.636" width="24.638" x="51.681" y="20"></rect><path d="m56.4 19.369h15.201v20.43h-15.201z" fill="#eeefee" transform="matrix(0 1 -1 0 93.584 -34.416)"></path><path d="m24.743 50.504h78.514v49.496h-78.514z" fill="#dbd8dd"></path><path d="m37.845 38.563h52.326v61.437h-52.326z" fill="#eeefee"></path><path d="m35.946 36.663h56.109v4.14h-56.109z" fill="#dbd8dd"></path><path d="m49.377 73.109h29.246v26.891h-29.246z" fill="#575b6d"></path><path d="m51.078 74.794h25.844v25.206h-25.844z" fill="#828a9e"></path><path d="m63.132 73.906h1.736v26.094h-1.736z" fill="#575b6d"></path><path d="m62.429 24.452h3.141v8.945h-3.141z" fill="#ef5261"></path><path d="m59.527 27.355h8.945v3.141h-8.945z" fill="#ef5261"></path><path d="m42.467 45.204h9.912v9.912h-9.912z" fill="#69b0ee"></path><path d="m49.187 45.204-3.271 9.912h-2.26l3.272-9.912z" fill="#fff" opacity=".4"></path><path d="m51.19 45.204-3.271 9.912h-.546l3.271-9.912z" fill="#fff" opacity=".4"></path><path d="m59.052 45.204h9.912v9.912h-9.912z" fill="#69b0ee"></path><path d="m65.772 45.204-3.271 9.912h-2.26l3.272-9.912z" fill="#fff" opacity=".4"></path><path d="m67.775 45.204-3.271 9.912h-.546l3.271-9.912z" fill="#fff" opacity=".4"></path><path d="m75.637 45.204h9.912v9.912h-9.912z" fill="#69b0ee"></path><path d="m82.357 45.204-3.271 9.912h-2.26l3.272-9.912z" fill="#fff" opacity=".4"></path><path d="m84.36 45.204-3.271 9.912h-.546l3.271-9.912z" fill="#fff" opacity=".4"></path><path d="m42.467 59.361h9.912v9.912h-9.912z" fill="#69b0ee"></path><path d="m49.187 59.361-3.271 9.912h-2.26l3.272-9.912z" fill="#fff" opacity=".4"></path><path d="m51.19 59.361-3.271 9.912h-.546l3.271-9.912z" fill="#fff" opacity=".4"></path><path d="m59.052 59.361h9.912v9.912h-9.912z" fill="#69b0ee"></path><path d="m65.772 59.361-3.271 9.912h-2.26l3.272-9.912z" fill="#fff" opacity=".4"></path><path d="m67.775 59.361-3.271 9.912h-.546l3.271-9.912z" fill="#fff" opacity=".4"></path><path d="m75.637 59.361h9.912v9.912h-9.912z" fill="#69b0ee"></path><g fill="#fff"><path d="m82.357 59.361-3.271 9.912h-2.26l3.272-9.912z" opacity=".4"></path><path d="m84.36 59.361-3.271 9.912h-.546l3.271-9.912z" opacity=".4"></path></g></g></svg>