<svg xmlns="http://www.w3.org/2000/svg" id="Capa_1" height="512" viewBox="0 0 512 512" width="512"><g><path d="m512 256c0 58.31-19.5 112.07-52.33 155.11-12.48 16.36-401.84 7.21-407.34 0-32.83-43.04-52.33-96.8-52.33-155.11 0-141.38 114.62-256 256-256s256 114.62 256 256z" fill="#b1e4f9"></path><path d="m459.67 116.59v294.52c-12.48 16.36-26.89 31.17-42.88 44.1-43.95 35.52-99.89 37.15-160.79 37.15-35.52 0-54.24 9.76-84.98-3.32-21.98-9.34-57.48-28.42-75.81-43.23-3.09-2.51-6.13 4.31-9.11 1.67-12.39-10.99-23.71-23.18-33.77-36.37v-294.52z" fill="#f9f6f9"></path><path d="m69.93 143.86v287.96c-6.22-6.59-12.1-13.5-17.6-20.71v-267.25z" fill="#e2d8ec"></path><path d="m459.67 135.28v60.8c-5.84 3.93-12.88 6.23-20.46 6.23-20.23 0-36.64-16.41-36.64-36.64 0 10.12-4.1 19.28-10.73 25.91s-15.79 10.73-25.91 10.73c-20.24 0-36.64-16.41-36.64-36.64 0 10.12-4.1 19.28-10.73 25.91-6.64 6.63-15.8 10.73-25.92 10.73-20.23 0-36.64-16.41-36.64-36.64 0 10.12-4.1 19.28-10.73 25.91s-15.79 10.73-25.91 10.73c-20.24 0-36.65-16.41-36.65-36.64 0 10.12-4.1 19.28-10.73 25.91s-15.79 10.73-25.91 10.73c-20.24 0-36.64-16.41-36.64-36.64 0 10.12-4.1 19.28-10.73 25.91-6.64 6.63-15.8 10.73-25.91 10.73-7.58 0-14.62-2.3-20.46-6.24v-60.79z" fill="#e2d8ec"></path><path d="m475.86 118.11v30.39c0 10.12-4.1 19.28-10.74 25.91-6.63 6.63-15.79 10.73-25.91 10.73-20.23 0-36.64-16.41-36.64-36.64 0 10.12-4.1 19.28-10.73 25.91s-15.79 10.73-25.91 10.73c-20.24 0-36.64-16.41-36.64-36.64 0 10.12-4.1 19.28-10.73 25.91-6.64 6.63-15.8 10.73-25.92 10.73-20.23 0-36.64-16.41-36.64-36.64 0 10.12-4.1 19.28-10.73 25.91s-15.79 10.73-25.91 10.73c-20.24 0-36.65-16.41-36.65-36.64 0 10.12-4.1 19.28-10.73 25.91s-15.79 10.73-25.91 10.73c-20.24 0-36.64-16.41-36.64-36.64 0 10.12-4.1 19.28-10.73 25.91-6.64 6.63-15.8 10.73-25.91 10.73-20.24 0-36.65-16.41-36.65-36.64v-30.39z" fill="#da387d"></path><path d="m36.14 118.11h439.72v21.24h-439.72z" fill="#aa3684"></path><path d="m494.17 88.775v18.39c0 9.98-8.09 18.07-18.07 18.07h-440.2c-9.98 0-18.07-8.09-18.07-18.07v-18.39c0-3.48.98-6.73 2.69-9.49 3.18-5.16 8.88-8.59 15.38-8.59h440.2c9.98 0 18.07 8.1 18.07 18.08z" fill="#80b4fb"></path><path d="m71.81 125.235h-35.91c-9.98 0-18.07-8.09-18.07-18.07v-18.39c0-3.48.98-6.73 2.69-9.49 3.18-5.16 8.88-8.59 15.38-8.59h35.91c-6.5 0-12.2 3.43-15.38 8.59-1.71 2.76-2.69 6.01-2.69 9.49v18.39c0 9.98 8.09 18.07 18.07 18.07z" fill="#61a2f9"></path><path d="m230.55 234.79v256.9h-59.53c-3.71-1.58-15.764-9.947-19.384-11.687-13.66-6.59-19.936-8.528-32.116-17.348-3.706-2.68-20.754-4.583-24.304-7.452-3.099-2.505-6.138-5.08-9.116-7.723v-212.69c0-12.39 10.04-22.43 22.43-22.43h99.59c12.38 0 22.43 10.04 22.43 22.43z" fill="#80b4fb"></path><path d="m210.54 234.79v251.92h-54.152c-8.76-4.23-28.699-18.905-36.868-24.055-4.58-2.89-9.05-5.93-13.42-9.09v-218.775c0-1.34 1.09-2.43 2.43-2.43h99.59c1.34 0 2.42 1.09 2.42 2.43z" fill="#b1e4f9"></path><path d="m210.54 234.79v115.83l-80.448 107.83-10.572 4.205c-4.58-2.89-9.05-5.93-13.42-9.09v-97.105l92.59-124.1h9.43c1.34 0 2.42 1.09 2.42 2.43z" fill="#d3effb"></path><g><circle cx="133.211" cy="79.248" fill="#95d6a4" r="79.246"></circle><path d="m143.035 157.88c-3.219.402-6.499.608-9.821.608-43.773 0-79.248-35.475-79.248-79.24 0-43.773 35.475-79.248 79.248-79.248 3.322 0 6.602.205 9.821.608-39.132 4.829-69.418 38.198-69.418 78.64s30.286 73.802 69.418 78.632z" fill="#78c2a4"></path><path d="m174.713 58.43h-20.684v-20.684c0-4.673-3.788-8.461-8.461-8.461h-24.713c-4.673 0-8.461 3.788-8.461 8.461v20.684h-20.685c-4.673 0-8.461 3.788-8.461 8.461v24.713c0 4.673 3.788 8.461 8.461 8.461h20.684v20.684c0 4.673 3.788 8.461 8.461 8.461h24.713c4.673 0 8.461-3.788 8.461-8.461v-20.684h20.684c4.673 0 8.461-3.788 8.461-8.461v-24.713c.002-4.673-3.787-8.461-8.46-8.461z" fill="#f9f6f9"></path></g><path d="m416.79 455.21c-43.95 35.52-99.89 56.79-160.79 56.79s-116.84-21.27-160.79-56.79c7.78-9.86 19.84-16.19 33.37-16.19 23.45 0 42.47 19.02 42.47 42.48 0-23.46 19.02-42.48 42.48-42.48 23.45 0 42.47 19.02 42.47 42.48 0-23.46 19.02-42.48 42.47-42.48 23.46 0 42.48 19.02 42.48 42.48 0-23.46 19.02-42.48 42.47-42.48 13.53 0 25.59 6.33 33.37 16.19z" fill="#95d6a4"></path><path d="m414.648 415.878h-138.752c-11.823 0-21.408-9.585-21.408-21.408v-160.7c0-11.823 9.585-21.408 21.408-21.408h138.751c11.823 0 21.408 9.585 21.408 21.408v160.7c.001 11.823-9.584 21.408-21.407 21.408z" fill="#80b4fb"></path><path d="m416.06 233.77v160.7c0 .78-.64 1.41-1.41 1.41h-138.75c-.78 0-1.41-.63-1.41-1.41v-160.7c0-.78.63-1.41 1.41-1.41h138.75c.77 0 1.41.63 1.41 1.41z" fill="#b1e4f9"></path><path d="m386.777 293.302h-20.684v-20.684c0-4.673-3.788-8.461-8.461-8.461h-24.713c-4.673 0-8.461 3.788-8.461 8.461v20.684h-20.684c-4.673 0-8.461 3.788-8.461 8.461v24.713c0 4.673 3.788 8.461 8.461 8.461h20.684v20.684c0 4.673 3.788 8.461 8.461 8.461h24.713c4.673 0 8.461-3.788 8.461-8.461v-20.684h20.684c4.673 0 8.461-3.788 8.461-8.461v-24.713c0-4.673-3.788-8.461-8.461-8.461z" fill="#a2dae8"></path><path d="m156.222 366.994h26.936c6.887 0 12.47-5.583 12.47-12.47 0-6.887-5.583-12.47-12.47-12.47h-26.936c-6.887 0-12.47 5.583-12.47 12.47 0 6.887 5.583 12.47 12.47 12.47z" fill="#80b4fb"></path><path d="m416.06 233.77v68.12l-70.13 93.99h-70.03c-.78 0-1.41-.63-1.41-1.41v-36.98l21.22-28.44 26.67-35.75 2.08-2.78 19.66-26.36 23.73-31.8h46.8c.77 0 1.41.63 1.41 1.41z" fill="#d3effb"></path><path d="m395.24 301.76v24.72c0 4.67-3.79 8.46-8.46 8.46h-20.69v20.68c0 4.68-3.79 8.46-8.46 8.46h-24.71c-4.67 0-8.46-3.78-8.46-8.46v-20.68h-20.69c-3.78 0-6.98-2.48-8.06-5.89l26.67-35.75h2.08v-2.78l19.66-26.36h13.51c4.67 0 8.46 3.78 8.46 8.46v20.68h20.69c4.67 0 8.46 3.79 8.46 8.46z" fill="#b1e4f9"></path></g></svg>