<svg xmlns="http://www.w3.org/2000/svg" id="Layer_3" height="512" viewBox="0 0 64 64" width="512"><g><path d="m60.023 37h-3.5l-3.181-4.241c6.092-5.128 9.658-12.683 9.658-20.759 0-.379-.214-.725-.553-.895l-12-6c-.281-.141-.613-.141-.895 0l-12 6c-.338.17-.552.516-.552.895 0 3.115.541 6.148 1.541 9h-10.541c-.553 0-1 .448-1 1v3.129c-1.949.303-3.771 1.166-5.241 2.523l-10.127 9.348h-5.609c-2.757 0-5 2.243-5 5v10c0 .552.447 1 1 1h7.08c.488 3.387 3.401 6 6.92 6s6.432-2.613 6.92-6h20.16c.488 3.387 3.401 6 6.92 6s6.432-2.613 6.92-6h5.08c.553 0 1-.448 1-1v-12c0-1.654-1.345-3-3-3zm1 3v4.816c-1.161-.414-2-1.514-2-2.816v-3h1c.552 0 1 .449 1 1zm-7-3h-14.023v-10h1.525c1.965 2.964 4.513 5.561 7.569 7.598l.352.234c.167.112.361.168.554.168s.387-.056.555-.168l.352-.234c.293-.195.573-.405.857-.611zm-5.243 2.171c1.674 1.674 2.733 3.792 3.095 6.085-.591-.162-1.21-.256-1.852-.256-.401 0-.792.042-1.174.107-.323-2.232-1.208-4.323-2.596-6.107h2.356zm-29.699 6.542c.284-2.47 1.377-4.757 3.161-6.541l.172-.172h21.172l.172.171c1.789 1.789 2.884 4.085 3.164 6.563-2.02 1.004-3.485 2.952-3.819 5.266h-20.16c-.335-2.331-1.819-4.289-3.862-5.287zm-1.643-6.713h2.309c-1.386 1.781-2.271 3.87-2.595 6.1-.368-.06-.744-.1-1.129-.1-.642 0-1.261.094-1.851.257.361-2.294 1.42-4.412 3.094-6.085zm20.562-12v10h-2v-10zm12-19.882 10.992 5.496c-.196 8.115-4.269 15.607-10.992 20.183-6.723-4.576-10.796-12.068-10.992-20.183zm-10.671 15.882c.301.68.627 1.348.982 2h-11.311v-2zm-16.213 6.122c1.482-1.369 3.408-2.122 5.426-2.122h5.458v10h-19.418zm-17.093 9.878h1v2c0 1.103-.897 2-2 2h-2v-1c0-1.654 1.346-3 3-3zm-3 6h2c2.206 0 4-1.794 4-4v-2h5.747c-1.619 2.081-2.557 4.582-2.71 7.236-1.57 1.084-2.673 2.793-2.957 4.764h-6.08zm13 12c-2.757 0-5-2.243-5-5s2.243-5 5-5 5 2.243 5 5-2.243 5-5 5zm34 0c-2.757 0-5-2.243-5-5s2.243-5 5-5 5 2.243 5 5-2.243 5-5 5zm6.921-6c-.284-1.971-1.386-3.68-2.957-4.764-.153-2.654-1.091-5.154-2.711-7.236h5.748v3c0 2.414 1.721 4.434 4 4.899v4.101z"></path><path d="m30.023 41h4v2h-4z"></path><path d="m16.023 49c-1.654 0-3 1.346-3 3s1.346 3 3 3 3-1.346 3-3-1.345-3-3-3zm0 4c-.552 0-1-.449-1-1s.448-1 1-1 1 .449 1 1-.448 1-1 1z"></path><path d="m50.023 49c-1.654 0-3 1.346-3 3s1.346 3 3 3 3-1.346 3-3-1.345-3-3-3zm0 4c-.552 0-1-.449-1-1s.448-1 1-1 1 .449 1 1-.448 1-1 1z"></path><path d="m57 19c0-3.86-3.141-7-7-7s-7 3.14-7 7 3.141 7 7 7 7-3.14 7-7zm-12 0c0-2.757 2.243-5 5-5s5 2.243 5 5-2.243 5-5 5-5-2.243-5-5z"></path></g></svg>